# xmcd CD database file
# Copyright (C) 1993-1998 Ti Kan
# 
# Track frame offsets:
#     183
#     14903
#     28353
#     51098
#     67450
#     86628
#     102058
#     131520
#     145603
#     160495
#     174485
#     191445
#     207095
#     221593
#     236068
#     255435
#     280675
#     295590
# 
# Disc length: 4283 seconds
# 
# Revision: 1
# Processed by: cddbd v1.4b41PL1 Copyright (c) Steve Scherf et al.
# Submitted via: DiscPlay 4.0.4
# 
DISCID=0f10b912
DTITLE=Al Green - I'm Still In Love With You - Call Me
DYEAR=1900
DGENRE=
TTITLE0=I'm Still In Love With You
TTITLE1=I'm Glad You're Mine
TTITLE2=Love And Happiness
TTITLE3=What A Wonderful Thing Love Is
TTITLE4=Simply Beautiful
TTITLE5=Oh Pretty Woman
TTITLE6=For The Good Times
TTITLE7=Look What You Done To Me
TTITLE8=One Of These Good Old Days
TTITLE9=Call Me (Come Back Home)
TTITLE10=Have You Been Making Out OK?
TTITLE11=Stand Up
TTITLE12=I'm So Lonesome I Could Cry
TTITLE13=Your Love Is Like The Morning Sun
TTITLE14=Here I Am (Come And Take Me)
TTITLE15=Funny How Time Slips Away
TTITLE16=You Ought To Be With Me
TTITLE17=Jesus Is Waiting
EXTD=
EXTT0=
EXTT1=
EXTT2=
EXTT3=
EXTT4=
EXTT5=
EXTT6=
EXTT7=
EXTT8=
EXTT9=
EXTT10=
EXTT11=
EXTT12=
EXTT13=
EXTT14=
EXTT15=
EXTT16=
EXTT17=
PLAYORDER=
